<?xml version="1.0" encoding="utf-8" ?>	<!-- Generator: Assembly 2.4 - http://assemblyapp.co -->	<svg version="1.1" xmlns="http://www.w3.org/2000/svg" xmlns:xlink="http://www.w3.org/1999/xlink" width="300.00" height="300.00" viewBox="0 0 300.0 300.0">		<g id="document" transform="scale(0.0732421875 0.0732421875) translate(2048.0 2048.0)">			<path d="M1211.89,167.111 L1274.24,14.6946 L1315.81,-307.458 C1315.81,-307.458 1249.99,-345.562 1083.72,-345.562 C1076.79,-286.674 1042.15,-78.8336 1028.3,0.838566 C771.961,-245.106 494.841,-570.723 404.776,-903.268 C352.816,-723.139 221.184,-477.195 193.472,-452.947 C165.76,-428.698 -208.353,-40.7295 -208.353,-40.7295 C-208.353,-40.7295 -409.266,-549.939 -412.73,-730.067 C-288.025,-730.067 -246.457,-730.067 -94.0409,-691.963 C-378.09,-934.444 -852.659,-1246.2 -949.651,-1499.08 C-1032.79,-1183.85 -1233.7,-709.283 -1445,-536.083 C-1261.41,-605.363 -1188.67,-619.219 -1129.78,-605.363 C-1070.89,-591.507 -935.795,316.063 -1001.61,423.448 C-1067.43,530.832 -1496.96,776.776 -1496.96,776.776 C-1496.96,776.776 -1441.54,762.92 -1368.8,742.136 C-1393.04,821.809 -1413.83,901.481 -1438.08,981.153 L-1438.08,984.617 L-1448.47,1092 C-1451.93,1130.11 -1458.86,1161.28 -1458.86,1199.39 C-1462.32,1237.49 -1462.32,1268.67 -1458.86,1306.77 C-1451.93,1344.87 -1451.93,1382.98 -1441.54,1417.62 L-1438.08,1417.62 C-1458.86,1428.01 -1479.64,1434.94 -1490.04,1441.87 L-1535.07,1490.36 L-1039.72,1324.09 L-665.602,1285.99 L1090.65,1261.74 L1090.65,970.761 L1218.82,409.592 L1534.04,409.592 C1534.04,423.448 1395.48,322.991 1211.89,167.111 Z M-1046.64,1299.84 C-1157.49,1331.02 -1337.62,1382.98 -1445,1424.55 C-1434.61,1389.91 -1431.15,1355.27 -1424.22,1317.16 C-1417.29,1279.06 -1413.83,1247.88 -1410.36,1209.78 C-1406.9,1171.67 -1410.36,1137.03 -1410.36,1102.39 L-1410.36,995.009 C-1396.51,915.337 -1379.19,832.201 -1368.8,749.064 L-1372.26,749.064 C-1264.88,721.352 -1115.92,690.176 -1025.86,690.176 C-1012,783.704 -987.755,1147.43 -1046.64,1299.84 Z " fill="#ffffff" fill-opacity="1.00" />		</g>	</svg>